<svg version="1.1" xmlns="http://www.w3.org/2000/svg" xmlns:xlink="http://www.w3.org/1999/xlink" width="198.4" height="36"
	 viewBox="0 0 198.4 36">
<g>
	<g>
    <path d="M164.8,30.9c0-0.5-0.3-0.8-0.8-0.8h-14.3c-0.5,0-0.8,0.3-0.8,0.8s0.3,0.8,0.8,0.8H164
      C164.5,31.7,164.8,31.3,164.8,30.9z" fill="#dd3327"/>
    <path d="M153,34.2h-1.6c-0.5,0-0.8,0.3-0.8,0.8s0.3,0.8,0.8,0.8h1.6c0.5,0,0.8-0.3,0.8-0.8S153.5,34.2,153,34.2z
      " fill="#dd3327"/>
    <path d="M156.8,26.8c0-0.5-0.3-0.8-0.8-0.8h-8c-0.5,0-0.8,0.3-0.8,0.8s0.3,0.8,0.8,0.8h8
      C156.5,27.7,156.8,27.2,156.8,26.8z" fill="#dd3327"/>
    <path d="M197.8,28.2c-0.2-0.5-0.7-0.9-1.2-1.1l-6.3-2.4l0,0l0,0l-2.6-0.9c-0.7-0.3-1.4-0.8-1.8-1.5
      l-2.1-3.5c0.4-0.1,0.7-0.4,0.7-0.8c0-0.5-0.3-0.8-0.8-0.8h-0.8l-1-1.6c0.4-0.1,0.7-0.4,0.7-0.8c0-0.5-0.3-0.8-0.8-0.8h-0.8
      l-0.8-1.3c0.3-0.1,0.6-0.4,0.6-0.7c0-0.5-0.3-0.8-0.8-0.8H179l-1.1-1.7c0,0,0-0.1-0.1-0.1c-1-1.1-2.3-1.7-3.7-1.6
      c-1.2,0.2-2.2,0.9-2.6,1.8c-0.1,0.2-0.1,0.5,0.1,0.7l6.8,11.6c0.1,0.2,0.2,0.3,0.4,0.3l8.4,3.2h0.1l2.5,0.9l0,0l0,0l0,0l0,0
      l0,0l6.2,2.4c0.2,0.1,0.3,0.2,0.4,0.4c0.3,0.7,0.3,1.3-0.1,2h-13.4c-0.8,0-1.6-0.2-2.3-0.7l-23-16.9c0,0,0.3-0.2,0.7-0.7
      s0.6-1.3,0.6-2l-0.7-6.9l1-1.6c0.2-0.3,0.7-0.4,1.1-0.2c0.2,0.2,1.2,1.1,3.6,4.9c1.2,1.8,3.2,3.1,5.4,3.4
      c0.4,0.1,0.9-0.2,1-0.7c0.1-0.4-0.2-0.9-0.7-1c-1.7-0.3-3.4-1.3-4.4-2.8c-2.9-4.4-3.7-5.1-4-5.3c-1.1-0.7-2.6-0.5-3.4,0.6
      l-5,7.9c-0.3,0.5-0.4,1.1-0.3,1.6c-0.5,0.2-1,0.4-1.2,0.9l-1.3,2c-0.7,1.1-0.4,2.5,0.7,3.3c0.7,0.6,2.3,1.6,4.6,3
      c0.2,0.1,0.3,0.2,0.4,0.2c0.2,0,0.5-0.2,0.7-0.4c0.2-0.4,0.2-0.9-0.2-1.1c-2.2-1.5-3.8-2.5-4.5-3c-0.3-0.2-0.4-0.7-0.2-1.1
      l1.2-1.9c0.2-0.3,0.7-0.4,1.1-0.2l0,0l25.9,19.1c1,0.7,2.1,1.1,3.3,1.1h11.4c-1.7,0.8-4.1,1.6-6.2,1.6l0,0h-2.9h-2.4l0,0
      c-1.4,0-2.8-0.4-4-1.1c-4.8-3-13.7-8.7-20.2-12.8c-0.4-0.2-0.9-0.2-1.2,0.2c-0.2,0.4-0.2,0.9,0.2,1.1
      c6.3,4.1,15,9.6,19.9,12.7h-21.3c-0.5,0-0.8,0.3-0.8,0.8s0.3,0.8,0.8,0.8h26.5l0,0h2.4h2.8l0,0c3.4,0,8.2-1.8,9.5-3.5
      C198.5,30.9,198.6,29.5,197.8,28.2L197.8,28.2z M179.6,20.9L173.2,10c0.2-0.2,0.7-0.5,1.2-0.6c0.5-0.1,1.4,0,2.2,0.9l0.5,0.8
      h-0.7c-0.5,0-0.8,0.3-0.8,0.8c0,0.5,0.3,0.8,0.8,0.8h1.7l0.8,1.3h-0.7c-0.5,0-0.8,0.3-0.8,0.8c0,0.5,0.3,0.8,0.8,0.8h1.6
      l1,1.6h-0.7c-0.5,0-0.8,0.3-0.8,0.8s0.3,0.8,0.8,0.8h1.6l2.3,3.6L179.6,20.9L179.6,20.9z M154.2,10l2.6-4l0.5,4.7
      c0,0.3-0.1,0.7-0.2,0.9c-0.2,0.2-0.5,0.9-1.2,0.3c0,0-0.4-0.2-1.2-0.8C154.1,10.7,154,10.3,154.2,10z" fill="#dd3327"/>
  </g>
  <g>
    <path d="M13.7,25.5h-9v9.3H0V12.1h14.8v3.8H4.7v5.9h9V25.5z" fill="#dd3327"/>
    <path d="M22.2,26.8v8h-4.7V12.1h8.9c1.7,0,3.2,0.3,4.5,0.9s2.3,1.5,3,2.7c0.7,1.2,1,2.5,1,3.9c0,2.2-0.8,4-2.3,5.3
      c-1.5,1.3-3.6,1.9-6.3,1.9H22.2z M22.2,23h4.2c1.2,0,2.2-0.3,2.8-0.9c0.7-0.6,1-1.4,1-2.5c0-1.1-0.3-2-1-2.7s-1.6-1-2.7-1.1h-4.3
      V23z" fill="#dd3327"/>
    <path d="M50,28.8c0-0.9-0.3-1.6-0.9-2c-0.6-0.5-1.8-1-3.4-1.5c-1.6-0.5-2.9-1-3.9-1.6c-2.6-1.4-3.9-3.3-3.9-5.6
      c0-1.2,0.3-2.3,1-3.3c0.7-1,1.7-1.7,3-2.3c1.3-0.5,2.8-0.8,4.4-0.8c1.6,0,3.1,0.3,4.3,0.9c1.3,0.6,2.3,1.4,3,2.5
      c0.7,1.1,1.1,2.3,1.1,3.7H50c0-1-0.3-1.9-1-2.4c-0.7-0.6-1.6-0.9-2.8-0.9c-1.1,0-2,0.2-2.7,0.7c-0.6,0.5-1,1.1-1,1.9
      c0,0.7,0.4,1.4,1.1,1.9c0.7,0.5,1.8,1,3.3,1.4c2.7,0.8,4.6,1.8,5.8,3s1.8,2.7,1.8,4.4c0,2-0.7,3.5-2.2,4.6
      c-1.5,1.1-3.5,1.7-6,1.7c-1.8,0-3.3-0.3-4.8-1s-2.5-1.5-3.3-2.6c-0.8-1.1-1.1-2.4-1.1-3.9h4.7c0,2.5,1.5,3.8,4.5,3.8
      c1.1,0,2-0.2,2.6-0.7S50,29.7,50,28.8z" fill="#dd3327"/>
    <path d="M76.4,34.8h-4.7v-9.8h-9.1v9.8h-4.7V12.1h4.7v9.2h9.1v-9.2h4.7V34.8z" fill="#dd3327"/>
    <path d="M99.1,23.9c0,2.2-0.4,4.2-1.2,5.9c-0.8,1.7-1.9,3-3.4,3.9c-1.5,0.9-3.2,1.4-5.1,1.4c-1.9,0-3.6-0.5-5-1.4
      c-1.5-0.9-2.6-2.2-3.4-3.9c-0.8-1.7-1.2-3.6-1.2-5.8v-1.1c0-2.2,0.4-4.2,1.2-5.9c0.8-1.7,1.9-3,3.4-3.9c1.5-0.9,3.2-1.4,5.1-1.4
      c1.9,0,3.6,0.5,5.1,1.4c1.5,0.9,2.6,2.2,3.4,3.9c0.8,1.7,1.2,3.7,1.2,5.9V23.9z M94.4,22.9c0-2.4-0.4-4.2-1.3-5.4
      c-0.9-1.2-2.1-1.9-3.7-1.9c-1.6,0-2.8,0.6-3.6,1.8c-0.9,1.2-1.3,3-1.3,5.4v1.1c0,2.3,0.4,4.1,1.3,5.4c0.9,1.3,2.1,1.9,3.7,1.9
      c1.6,0,2.8-0.6,3.6-1.9s1.3-3,1.3-5.4V22.9z" fill="#dd3327"/>
    <path d="M116.2,24.9h-9V31h10.6v3.8h-15.2V12.1h15.2v3.8h-10.5v5.4h9V24.9z" fill="#dd3327"/>
    <path d="M132.3,28.8c0-0.9-0.3-1.6-0.9-2c-0.6-0.5-1.8-1-3.4-1.5c-1.6-0.5-2.9-1-3.9-1.6c-2.6-1.4-3.9-3.3-3.9-5.6
      c0-1.2,0.3-2.3,1-3.3c0.7-1,1.7-1.7,3-2.3c1.3-0.5,2.8-0.8,4.4-0.8c1.6,0,3.1,0.3,4.3,0.9c1.3,0.6,2.3,1.4,3,2.5
      c0.7,1.1,1.1,2.3,1.1,3.7h-4.7c0-1-0.3-1.9-1-2.4c-0.7-0.6-1.6-0.9-2.8-0.9c-1.1,0-2,0.2-2.7,0.7c-0.6,0.5-1,1.1-1,1.9
      c0,0.7,0.4,1.4,1.1,1.9s1.8,1,3.3,1.4c2.7,0.8,4.6,1.8,5.8,3s1.8,2.7,1.8,4.4c0,2-0.7,3.5-2.2,4.6c-1.5,1.1-3.5,1.7-6,1.7
      c-1.8,0-3.3-0.3-4.8-1s-2.5-1.5-3.3-2.6c-0.8-1.1-1.1-2.4-1.1-3.9h4.7c0,2.5,1.5,3.8,4.5,3.8c1.1,0,2-0.2,2.6-0.7
      S132.3,29.7,132.3,28.8z" fill="#dd3327"/>
  </g>
</g>
</svg>
